<?xml version="1.0" encoding="UTF-8" standalone="no"?>
<!DOCTYPE svg PUBLIC "-//W3C//DTD SVG 1.1//EN"
 "http://www.w3.org/Graphics/SVG/1.1/DTD/svg11.dtd">
<!-- Generated by graphviz version 5.0.0 (20220707.1540)
 -->
<!-- Title: dependencies Pages: 1 -->
<svg width="2248pt" height="247pt"
 viewBox="0.00 0.00 2248.00 246.80" xmlns="http://www.w3.org/2000/svg" xmlns:xlink="http://www.w3.org/1999/xlink">
<g id="graph0" class="graph" transform="scale(1 1) rotate(0) translate(4 242.8)">
<title>dependencies</title>
<polygon fill="white" stroke="transparent" points="-4,4 -4,-242.8 2244,-242.8 2244,4 -4,4"/>
<text text-anchor="middle" x="1120" y="-8.2" font-family="sans-serif" font-size="14.00">dependencies</text>
<g id="clust1" class="cluster">
<title>cluster_AppModule</title>
<polygon fill="none" stroke="black" stroke-dasharray="1,5" points="8,-32.8 8,-230.8 2232,-230.8 2232,-32.8 8,-32.8"/>
</g>
<g id="clust18" class="cluster">
<title>cluster_AppModule_bootstrap</title>
<polygon fill="none" stroke="black" points="1013,-170.8 1013,-222.8 1137,-222.8 1137,-170.8 1013,-170.8"/>
</g>
<g id="clust19" class="cluster">
<title>cluster_AppModule_providers</title>
<polygon fill="none" stroke="black" points="2052,-40.8 2052,-92.8 2224,-92.8 2224,-40.8 2052,-40.8"/>
</g>
<g id="clust16" class="cluster">
<title>cluster_AppModule_imports</title>
<polygon fill="none" stroke="black" points="1900,-40.8 1900,-92.8 2044,-92.8 2044,-40.8 1900,-40.8"/>
</g>
<g id="clust2" class="cluster">
<title>cluster_AppModule_declarations</title>
<polygon fill="none" stroke="black" points="16,-40.8 16,-92.8 1892,-92.8 1892,-40.8 16,-40.8"/>
</g>
<!-- AboutComponent -->
<g id="node1" class="node">
<title>AboutComponent</title>
<polygon fill="#ffffb3" stroke="black" points="1884.33,-84.8 1767.67,-84.8 1767.67,-48.8 1884.33,-48.8 1884.33,-84.8"/>
<text text-anchor="middle" x="1826" y="-62.6" font-family="Times,serif" font-size="14.00">AboutComponent</text>
</g>
<!-- AppModule -->
<g id="node14" class="node">
<title>AppModule</title>
<polygon fill="#8dd3c7" stroke="black" points="1116.66,-149.8 1113.66,-153.8 1092.66,-153.8 1089.66,-149.8 1033.34,-149.8 1033.34,-113.8 1116.66,-113.8 1116.66,-149.8"/>
<text text-anchor="middle" x="1075" y="-127.6" font-family="Times,serif" font-size="14.00">AppModule</text>
</g>
<!-- AboutComponent&#45;&gt;AppModule -->
<g id="edge1" class="edge">
<title>AboutComponent&#45;&gt;AppModule</title>
<path fill="none" stroke="black" d="M1826,-84.83C1826,-105.57 1826,-136.8 1826,-136.8 1826,-136.8 1126.72,-136.8 1126.72,-136.8"/>
<polygon fill="black" stroke="black" points="1126.72,-133.3 1116.72,-136.8 1126.72,-140.3 1126.72,-133.3"/>
</g>
<!-- AppComponent -->
<g id="node2" class="node">
<title>AppComponent</title>
<polygon fill="#ffffb3" stroke="black" points="1749.94,-84.8 1644.06,-84.8 1644.06,-48.8 1749.94,-48.8 1749.94,-84.8"/>
<text text-anchor="middle" x="1697" y="-62.6" font-family="Times,serif" font-size="14.00">AppComponent</text>
</g>
<!-- AppComponent&#45;&gt;AppModule -->
<g id="edge2" class="edge">
<title>AppComponent&#45;&gt;AppModule</title>
<path fill="none" stroke="black" d="M1697,-84.91C1697,-104.14 1697,-131.8 1697,-131.8 1697,-131.8 1126.78,-131.8 1126.78,-131.8"/>
<polygon fill="black" stroke="black" points="1126.78,-128.3 1116.78,-131.8 1126.78,-135.3 1126.78,-128.3"/>
</g>
<!-- DeletedTodosComponent -->
<g id="node3" class="node">
<title>DeletedTodosComponent</title>
<polygon fill="#ffffb3" stroke="black" points="1625.86,-84.8 1466.14,-84.8 1466.14,-48.8 1625.86,-48.8 1625.86,-84.8"/>
<text text-anchor="middle" x="1546" y="-62.6" font-family="Times,serif" font-size="14.00">DeletedTodosComponent</text>
</g>
<!-- DeletedTodosComponent&#45;&gt;AppModule -->
<g id="edge3" class="edge">
<title>DeletedTodosComponent&#45;&gt;AppModule</title>
<path fill="none" stroke="black" d="M1546,-85.1C1546,-103.07 1546,-127.8 1546,-127.8 1546,-127.8 1126.8,-127.8 1126.8,-127.8"/>
<polygon fill="black" stroke="black" points="1126.8,-124.3 1116.8,-127.8 1126.8,-131.3 1126.8,-124.3"/>
</g>
<!-- FavoriteTodosComponent -->
<g id="node4" class="node">
<title>FavoriteTodosComponent</title>
<polygon fill="#ffffb3" stroke="black" points="1448.49,-84.8 1285.51,-84.8 1285.51,-48.8 1448.49,-48.8 1448.49,-84.8"/>
<text text-anchor="middle" x="1367" y="-62.6" font-family="Times,serif" font-size="14.00">FavoriteTodosComponent</text>
</g>
<!-- FavoriteTodosComponent&#45;&gt;AppModule -->
<g id="edge4" class="edge">
<title>FavoriteTodosComponent&#45;&gt;AppModule</title>
<path fill="none" stroke="black" d="M1367,-84.83C1367,-101.2 1367,-122.8 1367,-122.8 1367,-122.8 1126.84,-122.8 1126.84,-122.8"/>
<polygon fill="black" stroke="black" points="1126.84,-119.3 1116.84,-122.8 1126.84,-126.3 1126.84,-119.3"/>
</g>
<!-- FooterComponent -->
<g id="node5" class="node">
<title>FooterComponent</title>
<polygon fill="#ffffb3" stroke="black" points="1267.88,-84.8 1150.12,-84.8 1150.12,-48.8 1267.88,-48.8 1267.88,-84.8"/>
<text text-anchor="middle" x="1209" y="-62.6" font-family="Times,serif" font-size="14.00">FooterComponent</text>
</g>
<!-- FooterComponent&#45;&gt;AppModule -->
<g id="edge5" class="edge">
<title>FooterComponent&#45;&gt;AppModule</title>
<path fill="none" stroke="black" d="M1209,-84.99C1209,-99.98 1209,-118.8 1209,-118.8 1209,-118.8 1126.66,-118.8 1126.66,-118.8"/>
<polygon fill="black" stroke="black" points="1126.66,-115.3 1116.66,-118.8 1126.66,-122.3 1126.66,-115.3"/>
</g>
<!-- LoginComponent -->
<g id="node6" class="node">
<title>LoginComponent</title>
<polygon fill="#ffffb3" stroke="black" points="1132.27,-84.8 1017.73,-84.8 1017.73,-48.8 1132.27,-48.8 1132.27,-84.8"/>
<text text-anchor="middle" x="1075" y="-62.6" font-family="Times,serif" font-size="14.00">LoginComponent</text>
</g>
<!-- LoginComponent&#45;&gt;AppModule -->
<g id="edge6" class="edge">
<title>LoginComponent&#45;&gt;AppModule</title>
<path fill="none" stroke="black" d="M1075,-84.91C1075,-84.91 1075,-103.79 1075,-103.79"/>
<polygon fill="black" stroke="black" points="1071.5,-103.79 1075,-113.79 1078.5,-103.79 1071.5,-103.79"/>
</g>
<!-- NavbarComponent -->
<g id="node7" class="node">
<title>NavbarComponent</title>
<polygon fill="#ffffb3" stroke="black" points="999.03,-84.8 876.97,-84.8 876.97,-48.8 999.03,-48.8 999.03,-84.8"/>
<text text-anchor="middle" x="938" y="-62.6" font-family="Times,serif" font-size="14.00">NavbarComponent</text>
</g>
<!-- NavbarComponent&#45;&gt;AppModule -->
<g id="edge7" class="edge">
<title>NavbarComponent&#45;&gt;AppModule</title>
<path fill="none" stroke="black" d="M938,-84.99C938,-99.98 938,-118.8 938,-118.8 938,-118.8 1023.15,-118.8 1023.15,-118.8"/>
<polygon fill="black" stroke="black" points="1023.15,-122.3 1033.15,-118.8 1023.15,-115.3 1023.15,-122.3"/>
</g>
<!-- NotFoundComponent -->
<g id="node8" class="node">
<title>NotFoundComponent</title>
<polygon fill="#ffffb3" stroke="black" points="859.12,-84.8 720.88,-84.8 720.88,-48.8 859.12,-48.8 859.12,-84.8"/>
<text text-anchor="middle" x="790" y="-62.6" font-family="Times,serif" font-size="14.00">NotFoundComponent</text>
</g>
<!-- NotFoundComponent&#45;&gt;AppModule -->
<g id="edge8" class="edge">
<title>NotFoundComponent&#45;&gt;AppModule</title>
<path fill="none" stroke="black" d="M790,-84.83C790,-101.2 790,-122.8 790,-122.8 790,-122.8 1023.25,-122.8 1023.25,-122.8"/>
<polygon fill="black" stroke="black" points="1023.25,-126.3 1033.25,-122.8 1023.25,-119.3 1023.25,-126.3"/>
</g>
<!-- SignupComponent -->
<g id="node9" class="node">
<title>SignupComponent</title>
<polygon fill="#ffffb3" stroke="black" points="702.51,-84.8 581.49,-84.8 581.49,-48.8 702.51,-48.8 702.51,-84.8"/>
<text text-anchor="middle" x="642" y="-62.6" font-family="Times,serif" font-size="14.00">SignupComponent</text>
</g>
<!-- SignupComponent&#45;&gt;AppModule -->
<g id="edge9" class="edge">
<title>SignupComponent&#45;&gt;AppModule</title>
<path fill="none" stroke="black" d="M642,-85.1C642,-103.07 642,-127.8 642,-127.8 642,-127.8 1023.09,-127.8 1023.09,-127.8"/>
<polygon fill="black" stroke="black" points="1023.09,-131.3 1033.09,-127.8 1023.09,-124.3 1023.09,-131.3"/>
</g>
<!-- TodoComponent -->
<g id="node10" class="node">
<title>TodoComponent</title>
<polygon fill="#ffffb3" stroke="black" points="563.38,-84.8 452.62,-84.8 452.62,-48.8 563.38,-48.8 563.38,-84.8"/>
<text text-anchor="middle" x="508" y="-62.6" font-family="Times,serif" font-size="14.00">TodoComponent</text>
</g>
<!-- TodoComponent&#45;&gt;AppModule -->
<g id="edge10" class="edge">
<title>TodoComponent&#45;&gt;AppModule</title>
<path fill="none" stroke="black" d="M508,-84.91C508,-104.14 508,-131.8 508,-131.8 508,-131.8 1023.31,-131.8 1023.31,-131.8"/>
<polygon fill="black" stroke="black" points="1023.31,-135.3 1033.31,-131.8 1023.31,-128.3 1023.31,-135.3"/>
</g>
<!-- TodoDetailsComponent -->
<g id="node11" class="node">
<title>TodoDetailsComponent</title>
<polygon fill="#ffffb3" stroke="black" points="434.04,-84.8 283.96,-84.8 283.96,-48.8 434.04,-48.8 434.04,-84.8"/>
<text text-anchor="middle" x="359" y="-62.6" font-family="Times,serif" font-size="14.00">TodoDetailsComponent</text>
</g>
<!-- TodoDetailsComponent&#45;&gt;AppModule -->
<g id="edge11" class="edge">
<title>TodoDetailsComponent&#45;&gt;AppModule</title>
<path fill="none" stroke="black" d="M359,-84.83C359,-105.57 359,-136.8 359,-136.8 359,-136.8 1023.15,-136.8 1023.15,-136.8"/>
<polygon fill="black" stroke="black" points="1023.15,-140.3 1033.15,-136.8 1023.15,-133.3 1023.15,-140.3"/>
</g>
<!-- TodosComponent -->
<g id="node12" class="node">
<title>TodosComponent</title>
<polygon fill="#ffffb3" stroke="black" points="266.33,-84.8 149.67,-84.8 149.67,-48.8 266.33,-48.8 266.33,-84.8"/>
<text text-anchor="middle" x="208" y="-62.6" font-family="Times,serif" font-size="14.00">TodosComponent</text>
</g>
<!-- TodosComponent&#45;&gt;AppModule -->
<g id="edge12" class="edge">
<title>TodosComponent&#45;&gt;AppModule</title>
<path fill="none" stroke="black" d="M208,-85.09C208,-107.01 208,-140.8 208,-140.8 208,-140.8 1023.18,-140.8 1023.18,-140.8"/>
<polygon fill="black" stroke="black" points="1023.18,-144.3 1033.18,-140.8 1023.18,-137.3 1023.18,-144.3"/>
</g>
<!-- UserComponent -->
<g id="node13" class="node">
<title>UserComponent</title>
<polygon fill="#ffffb3" stroke="black" points="131.77,-84.8 24.23,-84.8 24.23,-48.8 131.77,-48.8 131.77,-84.8"/>
<text text-anchor="middle" x="78" y="-62.6" font-family="Times,serif" font-size="14.00">UserComponent</text>
</g>
<!-- UserComponent&#45;&gt;AppModule -->
<g id="edge13" class="edge">
<title>UserComponent&#45;&gt;AppModule</title>
<path fill="none" stroke="black" d="M78,-85.12C78,-108.46 78,-145.8 78,-145.8 78,-145.8 1023.11,-145.8 1023.11,-145.8"/>
<polygon fill="black" stroke="black" points="1023.11,-149.3 1033.11,-145.8 1023.11,-142.3 1023.11,-149.3"/>
</g>
<!-- AppComponent  -->
<g id="node16" class="node">
<title>AppComponent </title>
<polygon fill="#80b1d3" stroke="black" points="1129.44,-214.8 1020.56,-214.8 1020.56,-178.8 1129.44,-178.8 1129.44,-214.8"/>
<text text-anchor="middle" x="1075" y="-192.6" font-family="Times,serif" font-size="14.00">AppComponent </text>
</g>
<!-- AppModule&#45;&gt;AppComponent  -->
<g id="edge15" class="edge">
<title>AppModule&#45;&gt;AppComponent </title>
<path fill="none" stroke="black" stroke-dasharray="1,5" d="M1075,-149.91C1075,-149.91 1075,-168.79 1075,-168.79"/>
<polygon fill="black" stroke="black" points="1071.5,-168.79 1075,-178.79 1078.5,-168.79 1071.5,-168.79"/>
</g>
<!-- AppRoutingModule -->
<g id="node15" class="node">
<title>AppRoutingModule</title>
<polygon fill="#8dd3c7" stroke="black" points="2036.28,-84.8 2033.28,-88.8 2012.28,-88.8 2009.28,-84.8 1907.72,-84.8 1907.72,-48.8 2036.28,-48.8 2036.28,-84.8"/>
<text text-anchor="middle" x="1972" y="-62.6" font-family="Times,serif" font-size="14.00">AppRoutingModule</text>
</g>
<!-- AppRoutingModule&#45;&gt;AppModule -->
<g id="edge14" class="edge">
<title>AppRoutingModule&#45;&gt;AppModule</title>
<path fill="none" stroke="black" d="M1972,-85.09C1972,-107.01 1972,-140.8 1972,-140.8 1972,-140.8 1126.76,-140.8 1126.76,-140.8"/>
<polygon fill="black" stroke="black" points="1126.76,-137.3 1116.76,-140.8 1126.76,-144.3 1126.76,-137.3"/>
</g>
<!-- TodosInterceptor -->
<g id="node17" class="node">
<title>TodosInterceptor</title>
<ellipse fill="#fdb462" stroke="black" cx="2138" cy="-66.8" rx="77.57" ry="18"/>
<text text-anchor="middle" x="2138" y="-62.6" font-family="Times,serif" font-size="14.00">TodosInterceptor</text>
</g>
<!-- TodosInterceptor&#45;&gt;AppModule -->
<g id="edge16" class="edge">
<title>TodosInterceptor&#45;&gt;AppModule</title>
<path fill="none" stroke="black" d="M2138,-85.12C2138,-108.46 2138,-145.8 2138,-145.8 2138,-145.8 1126.67,-145.8 1126.67,-145.8"/>
<polygon fill="black" stroke="black" points="1126.67,-142.3 1116.67,-145.8 1126.67,-149.3 1126.67,-142.3"/>
</g>
</g>
</svg>
